<?xml version="1.0" standalone="no"?>
<!DOCTYPE svg PUBLIC "-//W3C//DTD SVG 20010904//EN"
 "http://www.w3.org/TR/2001/REC-SVG-20010904/DTD/svg10.dtd">
<svg version="1.0" xmlns="http://www.w3.org/2000/svg"
 width="1000.000000pt" height="1000.000000pt" viewBox="0 0 1000.000000 1000.000000"
 preserveAspectRatio="xMidYMid meet">
<metadata>
Created by potrace 1.16, written by Peter Selinger 2001-2019
</metadata>
<g transform="translate(0.000000,1000.000000) scale(0.100000,-0.100000)"
fill="#000000" stroke="none">
<path d="M3196 7428 c-240 -254 -411 -580 -493 -942 -22 -97 -26 -142 -30
-356 -6 -274 2 -355 49 -545 84 -335 280 -684 501 -892 46 -44 62 -53 92 -53
53 0 95 44 95 100 0 36 -7 49 -53 98 -188 201 -320 419 -402 664 -206 616 -68
1278 369 1769 77 87 86 101 86 137 0 57 -37 92 -99 92 -44 0 -49 -3 -115 -72z"/>
<path d="M6617 7472 c-19 -20 -27 -39 -27 -65 0 -31 11 -49 74 -122 142 -162
205 -254 285 -413 212 -423 248 -914 100 -1357 -85 -256 -209 -465 -391 -662
-61 -65 -68 -77 -68 -114 0 -56 42 -99 96 -99 35 0 46 8 119 83 217 222 391
537 471 852 51 204 57 264 51 547 -4 210 -8 270 -26 353 -79 360 -260 705
-504 960 -59 61 -65 65 -108 65 -37 0 -50 -5 -72 -28z"/>
<path d="M3589 7127 c-67 -36 -214 -225 -293 -377 -106 -204 -153 -386 -163
-620 -12 -292 56 -562 201 -805 60 -99 166 -235 221 -284 57 -50 129 -41 160
19 27 52 19 73 -57 161 -232 270 -342 579 -324 914 15 295 131 577 319 782 87
94 97 131 50 183 -33 35 -78 46 -114 27z"/>
<path d="M6334 7130 c-30 -12 -64 -58 -64 -87 0 -34 16 -61 65 -113 148 -155
262 -379 312 -613 22 -101 25 -380 5 -472 -54 -249 -143 -429 -306 -619 -78
-90 -88 -115 -65 -159 19 -36 52 -57 92 -57 49 0 102 48 208 189 129 172 222
382 266 598 25 125 25 434 0 553 -56 261 -172 495 -341 689 -85 98 -115 114
-172 91z"/>
<path d="M4897 6910 c-345 -42 -638 -305 -718 -645 -18 -75 -20 -112 -17 -225
4 -119 8 -146 37 -230 40 -119 91 -205 186 -317 138 -162 194 -302 202 -505
l6 -128 407 0 407 0 6 128 c8 197 66 347 188 487 125 143 184 252 220 403 18
73 20 109 17 227 -4 119 -9 152 -32 220 -78 227 -226 400 -431 501 -148 73
-320 103 -478 84z m328 -207 c175 -65 293 -170 374 -332 96 -189 94 -423 -4
-610 -19 -37 -71 -109 -115 -161 -133 -158 -207 -314 -232 -489 l-12 -81 -236
0 -236 0 -12 81 c-25 176 -99 331 -233 489 -92 109 -152 222 -174 325 -72 346
125 684 460 788 82 26 85 26 215 23 110 -3 134 -6 205 -33z"/>
<path d="M3871 6693 c-60 -41 -144 -155 -192 -258 -51 -107 -70 -190 -76 -321
-9 -198 35 -358 142 -520 74 -111 123 -154 176 -154 31 0 47 6 70 29 47 48 41
84 -30 171 -73 89 -115 171 -141 274 -52 206 2 429 145 596 38 44 55 73 55 92
0 83 -86 136 -149 91z"/>
<path d="M6031 6696 c-45 -25 -63 -84 -39 -129 6 -12 31 -44 54 -70 104 -116
161 -290 151 -461 -8 -160 -58 -282 -168 -411 -60 -70 -65 -110 -20 -156 44
-43 98 -41 151 7 56 51 147 191 181 279 118 303 59 644 -153 885 -62 70 -104
85 -157 56z"/>
<path d="M4590 4718 c0 -76 16 -124 57 -169 42 -46 73 -64 126 -74 28 -5 37
-12 37 -27 0 -66 48 -88 190 -88 142 0 190 22 190 88 0 16 9 22 39 27 77 13
149 79 171 156 6 19 10 58 10 86 l0 53 -410 0 -410 0 0 -52z"/>
<path d="M4043 4491 c-283 -134 -499 -418 -553 -727 -18 -103 -49 -865 -38
-926 23 -125 116 -247 233 -304 l60 -29 1255 0 1255 0 57 28 c119 59 207 168
232 291 13 60 12 117 -5 483 -21 453 -31 527 -90 669 -67 162 -215 341 -360
439 -85 57 -198 110 -208 99 -5 -5 -16 -32 -25 -60 -19 -59 -71 -149 -123
-212 -83 -102 -228 -187 -386 -227 -98 -24 -107 -31 -133 -104 -10 -25 -25
-55 -35 -66 -17 -19 -15 -38 32 -435 27 -228 49 -423 49 -432 0 -16 -242 -233
-260 -233 -5 0 -65 49 -135 109 l-127 109 7 71 c4 39 27 233 51 430 34 284 41
363 31 374 -7 8 -28 46 -47 85 l-35 71 -77 18 c-250 57 -426 201 -515 422 -18
44 -36 82 -40 83 -4 2 -36 -10 -70 -26z"/>
<path d="M4804 4231 c-28 -12 -64 -59 -64 -83 0 -11 23 -68 50 -127 28 -59 50
-112 50 -118 0 -5 10 -19 23 -31 21 -20 34 -22 138 -22 129 0 140 6 169 80 8
19 31 71 52 114 21 44 38 90 38 103 0 12 -13 37 -29 55 l-29 33 -189 2 c-103
1 -198 -2 -209 -6z"/>
<path d="M4880 3783 c0 -10 -18 -162 -39 -338 -22 -176 -42 -352 -46 -390 l-7
-70 106 -93 107 -92 104 92 c58 50 105 97 105 103 0 7 -20 184 -45 393 -25
209 -45 387 -45 396 0 14 -17 16 -120 16 -108 0 -120 -2 -120 -17z"/>
</g>
</svg>
