<?xml version="1.0" standalone="no"?>
<!DOCTYPE svg PUBLIC "-//W3C//DTD SVG 20010904//EN"
 "http://www.w3.org/TR/2001/REC-SVG-20010904/DTD/svg10.dtd">
<svg version="1.0" xmlns="http://www.w3.org/2000/svg"
 width="1000.000000pt" height="1000.000000pt" viewBox="0 0 1000.000000 1000.000000"
 preserveAspectRatio="xMidYMid meet">
<metadata>
Created by potrace 1.16, written by Peter Selinger 2001-2019
</metadata>
<g transform="translate(0.000000,1000.000000) scale(0.100000,-0.100000)"
fill="#000000" stroke="none">
<path d="M4550 7433 c0 -5 -18 -9 -39 -10 -47 -3 -156 -32 -231 -63 -179 -71
-176 -68 -161 -235 6 -69 11 -134 11 -144 0 -12 -26 -34 -80 -67 -44 -27 -80
-52 -80 -56 0 -5 -5 -8 -10 -8 -11 0 -44 -27 -128 -105 -34 -31 -61 -49 -73
-47 -11 2 -63 23 -116 48 -78 36 -105 44 -142 42 -43 -3 -48 -6 -91 -64 -75
-102 -84 -115 -100 -143 -8 -14 -17 -28 -20 -31 -3 -3 -12 -19 -21 -35 -8 -17
-24 -48 -36 -70 -50 -97 -66 -144 -59 -176 7 -35 16 -45 126 -129 108 -82 106
-79 87 -148 -22 -81 -38 -183 -44 -290 l-6 -94 -71 -32 c-39 -18 -90 -39 -114
-46 -23 -7 -54 -25 -69 -39 -25 -25 -25 -28 -19 -116 4 -49 7 -97 8 -105 1
-40 21 -110 30 -110 6 0 51 10 100 22 l89 22 -7 61 c-3 33 -7 66 -10 73 -2 7
4 15 14 19 33 11 167 77 178 88 7 6 27 24 45 39 32 27 32 30 35 114 3 129 14
240 31 307 8 33 17 71 19 84 3 13 10 33 15 44 24 45 -19 126 -111 210 -29 26
-56 47 -59 47 -3 0 -12 9 -19 20 -10 17 -8 28 14 73 15 28 30 54 35 55 5 2 9
8 9 14 0 6 10 25 23 42 13 17 26 39 30 48 6 16 9 16 54 -3 69 -29 182 -59 226
-59 34 0 47 9 125 83 92 87 192 162 264 199 24 13 62 36 85 53 39 28 42 34 48
93 4 34 3 97 -1 140 -4 42 -8 84 -8 92 -1 20 173 79 231 80 38 0 43 -3 49 -27
12 -50 82 -180 114 -211 36 -36 50 -39 226 -46 127 -5 211 -19 320 -53 51 -16
52 -16 105 11 49 24 109 84 177 175 l18 23 39 -22 c95 -53 175 -103 185 -115
8 -10 8 -19 1 -32 -14 -23 -38 -92 -58 -163 -23 -85 -14 -121 44 -174 27 -25
69 -71 94 -102 24 -31 52 -64 62 -73 9 -8 17 -21 17 -27 0 -7 4 -14 8 -16 11
-4 102 -154 102 -167 0 -5 20 -17 45 -27 38 -14 66 -16 170 -11 121 6 124 5
130 -16 4 -12 14 -41 23 -65 17 -43 17 -44 57 -38 22 4 66 9 98 13 l59 6 -6
36 c-4 20 -25 85 -48 145 -60 154 -74 161 -265 130 -53 -8 -102 -13 -109 -10
-7 3 -21 22 -30 43 -24 49 -160 232 -179 239 -8 4 -15 11 -15 16 0 6 -11 19
-26 30 -21 17 -24 26 -18 52 3 17 11 37 16 44 6 6 8 12 4 12 -4 0 3 18 14 40
11 22 18 40 15 40 -2 0 4 15 15 33 11 18 20 50 20 73 0 36 -6 47 -44 82 -24
22 -63 53 -87 68 -24 15 -46 30 -49 33 -12 15 -240 133 -240 125 0 -4 -11 1
-25 10 -13 9 -41 16 -61 16 -41 0 -61 -18 -162 -147 l-63 -80 -37 8 c-20 4
-82 17 -136 29 -55 12 -111 20 -125 20 -14 -1 -54 -2 -89 -1 l-62 1 -29 63
c-16 34 -37 87 -46 117 -10 30 -31 67 -47 83 -26 25 -35 27 -103 27 -41 0 -75
-3 -75 -7z"/>
<path d="M4785 6484 c-26 -5 -114 -23 -151 -30 -52 -9 -177 -67 -243 -112
-286 -193 -432 -544 -365 -878 22 -113 87 -269 138 -331 81 -99 110 -129 166
-175 36 -29 84 -61 107 -72 l41 -18 34 25 c40 31 265 147 284 147 8 0 14 7 14
15 0 8 -8 15 -17 15 -31 0 -142 39 -191 66 -121 67 -186 136 -238 249 -64 140
-72 317 -19 440 7 17 16 40 20 53 3 12 11 22 16 22 6 0 8 4 4 9 -3 5 1 15 8
23 7 7 26 30 42 51 16 21 55 59 87 83 214 165 495 161 711 -11 31 -25 57 -52
57 -60 0 -8 4 -15 8 -15 13 0 66 -80 86 -130 46 -114 57 -225 32 -340 -29
-134 -100 -242 -218 -335 -21 -16 -38 -33 -38 -39 0 -7 37 -10 112 -8 67 2
145 -3 193 -11 73 -13 81 -13 95 2 40 45 110 191 141 296 21 69 24 100 23 220
-1 122 -4 151 -28 225 -28 89 -96 230 -128 264 -10 11 -18 23 -18 27 0 13
-118 126 -181 173 -81 61 -165 101 -279 131 -90 24 -258 40 -305 29z"/>
<path d="M6500 5891 c-188 -39 -378 -156 -499 -307 -113 -142 -165 -281 -186
-494 l-6 -65 38 -17 c64 -28 156 -81 234 -133 80 -54 252 -213 244 -225 -3 -4
2 -10 9 -13 33 -13 210 -316 240 -411 6 -18 14 -19 134 -13 176 9 303 52 444
151 64 45 198 177 198 196 0 5 5 10 10 10 6 0 10 7 10 15 0 8 4 15 8 15 4 0
13 12 19 28 7 15 16 34 21 42 23 38 56 119 65 160 16 76 20 338 6 415 -10 61
-96 269 -117 285 -4 3 -27 31 -50 62 -103 135 -275 243 -469 293 -60 16 -286
19 -353 6z m220 -330 l0 -58 48 -18 c26 -10 59 -27 75 -39 26 -19 77 -106 77
-132 0 -8 -20 -13 -55 -16 -48 -3 -55 -1 -65 20 -5 13 -10 29 -10 36 0 7 -17
22 -39 34 -56 32 -127 30 -177 -4 -51 -35 -54 -39 -54 -106 0 -53 2 -58 39
-90 22 -18 54 -40 73 -49 185 -92 248 -131 248 -154 0 -8 3 -15 8 -15 23 0 47
-117 37 -184 -11 -74 -88 -149 -170 -166 -29 -5 -30 -8 -33 -62 l-3 -56 -62
-4 -62 -3 0 54 0 54 -45 15 c-24 8 -56 26 -69 39 -14 12 -29 23 -32 23 -10 0
-51 101 -53 132 -2 28 -1 28 56 28 57 0 58 -1 58 -27 0 -35 32 -88 61 -104 29
-15 129 -15 160 1 72 37 101 99 80 170 -15 51 -50 78 -190 150 -128 65 -172
102 -202 166 -26 58 -24 110 7 172 27 54 90 105 146 117 30 7 30 7 26 71 l-3
64 63 0 62 0 0 -59z"/>
<path d="M3467 5064 c-2 -2 -36 -4 -77 -5 -40 -1 -96 -8 -124 -16 -28 -8 -60
-16 -71 -18 -32 -7 -148 -56 -165 -69 -8 -7 -26 -17 -40 -23 -78 -33 -270
-215 -333 -315 -71 -112 -121 -242 -143 -363 -15 -90 -18 -329 -4 -350 4 -5
10 -30 13 -55 6 -43 27 -104 69 -200 11 -25 20 -47 18 -49 -1 -2 2 -7 7 -10 5
-3 21 -27 36 -53 62 -108 213 -251 340 -323 90 -51 136 -69 249 -99 135 -35
344 -36 482 -1 92 22 257 92 270 114 4 6 -2 31 -14 55 -11 25 -20 51 -20 59 0
8 -7 33 -15 56 -8 23 -17 63 -20 89 -3 26 -10 74 -15 107 -21 132 -5 348 37
495 8 30 16 59 17 65 10 49 43 130 85 209 74 139 84 156 123 197 9 9 15 19 12
21 -2 2 17 26 41 53 25 27 45 52 45 56 0 4 -26 35 -57 69 -112 121 -313 238
-478 279 -70 17 -258 35 -268 25z m103 -404 l0 -69 54 -16 c40 -12 65 -28 100
-65 25 -27 46 -55 46 -63 0 -8 7 -31 15 -50 8 -20 15 -39 15 -42 0 -3 -31 -5
-70 -5 -40 0 -70 4 -70 10 0 19 -35 90 -44 90 -5 0 -17 7 -27 16 -10 9 -44 18
-77 21 -115 11 -192 -51 -192 -154 0 -49 2 -53 49 -95 27 -23 106 -72 175
-107 155 -79 200 -116 237 -195 46 -98 36 -192 -31 -286 -17 -24 -102 -73
-162 -93 -15 -5 -18 -18 -18 -72 l0 -65 -80 0 -80 0 0 63 0 63 -42 11 c-92 25
-161 96 -183 189 -8 32 -14 62 -15 67 0 4 31 7 69 7 l68 0 7 -42 c5 -29 18
-52 45 -80 37 -36 41 -38 105 -38 124 0 196 52 204 146 8 100 -32 141 -246
247 -180 90 -235 155 -236 282 0 59 4 78 29 123 31 58 96 106 159 118 l36 6 0
74 0 74 80 0 80 0 0 -70z"/>
<path d="M5050 4936 c-91 -21 -163 -43 -205 -62 -22 -10 -42 -17 -45 -17 -9 2
-155 -81 -216 -122 -80 -54 -197 -166 -255 -245 -27 -36 -53 -70 -58 -76 -5
-6 -29 -51 -54 -100 -110 -220 -142 -352 -141 -574 1 -203 31 -334 117 -510
12 -24 22 -47 22 -50 0 -12 90 -150 98 -150 4 0 7 -4 7 -8 0 -17 118 -138 209
-213 62 -51 128 -95 197 -128 112 -56 269 -111 315 -111 16 0 29 -4 29 -10 0
-5 81 -9 205 -9 124 0 205 4 205 9 0 6 13 10 29 10 43 0 195 51 296 100 133
65 198 112 321 235 179 178 263 329 325 580 26 105 29 137 29 270 0 135 -3
164 -31 275 -17 68 -37 137 -45 152 -8 15 -12 28 -9 28 5 0 -90 185 -105 203
-6 7 -29 37 -51 67 -64 88 -175 195 -271 261 -83 57 -253 143 -301 153 -12 3
-53 15 -92 27 -60 19 -97 22 -270 25 -138 2 -217 -1 -255 -10z m366 -200 c98
-13 118 -18 234 -58 58 -20 202 -103 254 -147 46 -38 127 -122 156 -159 14
-18 35 -45 47 -60 13 -15 23 -31 23 -35 0 -5 8 -21 19 -35 16 -23 27 -48 71
-157 15 -37 22 -60 25 -87 2 -15 9 -45 15 -68 17 -64 14 -293 -5 -380 -33
-152 -86 -266 -180 -395 -51 -69 -152 -170 -204 -203 -14 -9 -28 -20 -31 -23
-12 -17 -135 -79 -211 -107 -234 -86 -446 -89 -684 -10 -61 20 -196 84 -205
98 -3 4 -24 19 -47 33 -55 35 -173 146 -173 163 0 8 -4 14 -10 14 -5 0 -32 33
-59 73 -76 114 -109 193 -157 387 -21 85 -18 262 6 356 11 43 22 88 24 99 6
29 46 128 58 142 6 7 7 13 3 13 -4 0 0 11 9 24 8 14 24 40 35 60 22 38 50 74
96 122 17 17 30 34 30 38 0 3 25 28 56 54 174 147 327 220 524 247 120 17 161
17 281 1z"/>
<path d="M5170 4436 c0 -85 0 -86 -27 -92 -83 -20 -201 -122 -221 -192 -4 -15
-7 -70 -7 -122 0 -81 3 -100 23 -132 46 -75 134 -142 276 -213 149 -74 216
-117 216 -140 0 -8 4 -15 8 -15 5 0 10 -26 11 -57 2 -77 -22 -116 -92 -148
-61 -29 -111 -31 -167 -9 -46 18 -75 64 -86 133 l-7 41 -104 0 -104 0 6 -47
c14 -96 35 -151 78 -199 49 -55 97 -87 155 -105 l42 -12 0 -74 0 -74 113 3
112 3 0 76 0 77 54 18 c80 27 162 106 191 184 32 86 26 203 -15 279 -43 79
-121 144 -249 208 -194 96 -247 139 -256 203 -11 74 32 131 112 148 44 10 62
10 104 -3 28 -8 58 -23 66 -32 24 -28 45 -76 41 -95 -4 -16 6 -18 101 -18 121
0 115 -5 92 93 -24 101 -104 191 -196 219 l-45 13 0 80 0 80 -112 3 -113 3 0
-85z"/>
</g>
</svg>
