<?xml version="1.0" standalone="no"?>
<!DOCTYPE svg PUBLIC "-//W3C//DTD SVG 20010904//EN"
 "http://www.w3.org/TR/2001/REC-SVG-20010904/DTD/svg10.dtd">
<svg version="1.0" xmlns="http://www.w3.org/2000/svg"
 width="1000.000000pt" height="1000.000000pt" viewBox="0 0 1000.000000 1000.000000"
 preserveAspectRatio="xMidYMid meet">
<metadata>
Created by potrace 1.16, written by Peter Selinger 2001-2019
</metadata>
<g transform="translate(0.000000,1000.000000) scale(0.100000,-0.100000)"
fill="#000000" stroke="none">
<path d="M4787 7500 c-27 -5 -51 -11 -54 -14 -4 -3 4 -94 17 -201 12 -108 21
-198 19 -200 -2 -1 -73 -30 -156 -63 l-152 -59 -112 156 c-62 86 -116 160
-120 165 -12 14 -157 -93 -254 -189 -83 -82 -192 -212 -184 -219 2 -1 75 -58
161 -125 l158 -123 -14 -31 c-38 -89 -119 -272 -121 -275 -1 -1 -91 12 -199
29 -108 17 -199 29 -202 26 -11 -10 -34 -184 -34 -254 l0 -73 389 0 390 0 6
58 c33 288 203 501 470 589 68 22 97 26 200 26 103 0 132 -4 200 -26 213 -70
374 -231 439 -437 13 -41 27 -105 31 -142 l7 -68 389 0 389 0 -1 83 c0 85 -11
172 -22 184 -4 3 -95 -4 -202 -17 -108 -12 -198 -21 -199 -19 -7 8 -116 295
-116 304 0 6 72 62 160 125 88 63 160 118 160 122 0 3 -28 44 -62 90 -70 95
-195 223 -285 291 l-62 47 -73 -92 c-40 -51 -97 -123 -126 -160 l-53 -67 -82
36 c-45 19 -115 49 -155 66 -61 26 -72 35 -69 52 17 74 60 375 55 380 -28 28
-408 45 -531 25z"/>
<path d="M3540 5873 c0 -5 281 -340 625 -746 l625 -738 0 -240 0 -239 205 0
205 0 0 238 0 239 63 74 c473 556 1180 1394 1184 1405 4 12 -212 14 -1451 14
-801 0 -1456 -3 -1456 -7z m1610 -458 l0 -215 177 0 178 0 -253 -252 -252
-253 -252 253 -253 252 173 0 172 0 0 215 0 215 155 0 155 0 0 -215z"/>
<path d="M4840 3724 c-212 -55 -391 -236 -445 -449 -19 -76 -19 -224 0 -300
54 -213 221 -386 434 -449 37 -11 93 -16 175 -16 102 0 132 4 189 25 255 89
427 328 427 590 0 274 -200 530 -467 599 -76 20 -238 20 -313 0z m195 -271 c0
-37 0 -37 56 -48 76 -16 77 -17 65 -68 l-10 -44 -33 13 c-44 19 -133 18 -161
-2 -27 -18 -29 -55 -4 -77 10 -9 50 -30 90 -46 122 -50 152 -83 152 -166 0
-80 -52 -143 -132 -160 -26 -6 -28 -11 -28 -51 0 -44 0 -44 -35 -44 -34 0 -35
1 -35 40 0 42 2 41 -75 54 -16 2 -42 9 -57 15 -25 9 -26 11 -16 53 14 53 12
52 38 38 36 -19 126 -30 165 -19 72 20 70 94 -2 126 -129 56 -166 77 -184 106
-25 42 -25 112 1 154 19 32 84 73 115 73 11 0 15 11 15 45 l0 45 38 0 c36 0
37 -1 37 -37z"/>
</g>
</svg>
